<?xml version="1.0" encoding="utf-8"?>
<!-- Generator: Adobe Illustrator 16.0.3, SVG Export Plug-In . SVG Version: 6.00 Build 0)  -->
<!DOCTYPE svg PUBLIC "-//W3C//DTD SVG 1.1//EN" "http://www.w3.org/Graphics/SVG/1.1/DTD/svg11.dtd">
<svg version="1.1" id="Layer_1" xmlns="http://www.w3.org/2000/svg" xmlns:xlink="http://www.w3.org/1999/xlink" x="0px" y="0px"
	 width="12px" height="12px" viewBox="-297.498 420.497 511.996 512.006"
	 enable-background="new -297.498 420.497 511.996 512.006" xml:space="preserve">
<path fill="#696969" d="M-140.698,932.494h-156.8V775.693l51.2-51.199v115.199l102.399-102.4l41.601,41.602l-102.4,102.398h115.2
	L-140.698,932.494z M214.497,775.693v156.801H57.699L6.501,881.293h115.196L19.299,778.895l41.6-41.602l102.397,102.4V724.494
	L214.497,775.693z M57.699,420.497h156.798v156.8l-51.201,51.199V513.299L60.899,615.695l-41.6-41.598l102.398-102.4H6.501
	L57.699,420.497z M-297.498,577.297v-156.8h156.8l51.2,51.2h-115.2l102.4,102.4l-41.601,41.598l-102.399-102.396v115.197
	L-297.498,577.297z"/>
</svg>
