<?xml version="1.0" encoding="utf-8"?>
<!-- Generator: Adobe Illustrator 16.0.3, SVG Export Plug-In . SVG Version: 6.00 Build 0)  -->
<!DOCTYPE svg PUBLIC "-//W3C//DTD SVG 1.1//EN" "http://www.w3.org/Graphics/SVG/1.1/DTD/svg11.dtd">
<svg version="1.1" id="Capa_1" xmlns="http://www.w3.org/2000/svg" xmlns:xlink="http://www.w3.org/1999/xlink" x="0px" y="0px"
	 width="18px" height="12px" viewBox="-294.389 422.232 17.777 11.535"
	 enable-background="new -294.389 422.232 17.777 11.535" xml:space="preserve">
<path fill="#FFFFFF" d="M-294.379,422.232h17.789v11.535h-17.789V422.232z"/>
<path fill="#3275c7" d="M-293.929,422.232c5.729,0.14,11.45,0,17.18,0.09c0.26,3.699,0.08,7.399,0.159,11.1
	c-5.869,0.55-11.799,0.33-17.689,0.12C-294.169,429.782-294.779,425.941-293.929,422.232z"/>
<path fill="#FFFFFF" d="M-290.889,424.021c3.68-0.039,7.359-0.01,11.039-0.029c-1.899,1.689-3.77,3.41-5.76,5.01
	C-287.349,427.322-289.129,425.691-290.889,424.021z"/>
<path fill="#FFFFFF" d="M-292.609,424.893c1.08,1.039,2.221,2.01,3.25,3.109c-1.079,0.98-2.079,2.05-3.149,3.05
	C-292.559,428.992-292.619,426.941-292.609,424.893z"/>
<path fill="#FFFFFF" d="M-281.699,428.012c1.1-1.01,2.24-1.97,3.35-2.96c0.061,1.94,0.061,3.87,0.09,5.81
	C-279.398,429.902-280.539,428.941-281.699,428.012z"/>
<path fill="#FFFFFF" d="M-290.879,431.972c0.94-0.92,1.86-1.87,2.79-2.79c1.05,0.62,1.979,1.41,3.04,2.021
	c0.479-0.54,1.43-1.62,1.91-2.16c1.17,0.99,2.35,1.99,3.529,2.979C-283.369,431.972-287.129,432.032-290.879,431.972z"/>
</svg>
