<?xml version="1.0" encoding="utf-8"?>
<!-- Generator: Adobe Illustrator 16.0.3, SVG Export Plug-In . SVG Version: 6.00 Build 0)  -->
<!DOCTYPE svg PUBLIC "-//W3C//DTD SVG 1.1//EN" "http://www.w3.org/Graphics/SVG/1.1/DTD/svg11.dtd">
<svg version="1.1" id="Capa_1" xmlns="http://www.w3.org/2000/svg" xmlns:xlink="http://www.w3.org/1999/xlink" x="0px" y="0px"
	 width="20px" height="20px" viewBox="-297.5 420.5 19.999 20" enable-background="new -297.5 420.5 19.999 20"
	 xml:space="preserve">
<path fill="#FFFFFF" d="M-297.5,420.5h20v20h-20V420.5z"/>
<path d="M-292.23,423.561c1.101-0.301,2.181-0.26,3.25,0.129c1.33,1.271,0.92,3.271,1.141,4.92c-0.521,1.311-1.83,2.721-1.03,4.182
	c2.28,1.479,5.898,2.17,5.299,5.668c-4.139,0.07-8.279,0.031-12.419,0.041c-0.01-0.811-0.03-2.41-0.05-3.219
	c1.13-0.861,2.29-1.691,3.37-2.621c1-1.359-0.54-2.77-0.971-4.039C-293.44,426.891-293.919,424.711-292.23,423.561z"/>
<path d="M-286.32,426.381c1.36-0.721,3.52-1.691,4.369,0.24c0.45,2.01-0.319,4-0.92,5.879c2.852,0.77,4.83,2.871,4.24,5.98
	c-1.369,0.01-2.74,0.02-4.101,0.029c-0.029-1.18-0.049-2.359-0.039-3.539c-0.98-0.57-1.939-1.16-2.89-1.77
	C-285.48,430.9-286.099,428.65-286.32,426.381z"/>
</svg>
